<?xml version="1.0" encoding="utf-8"?>
<!-- Generator: Adobe Illustrator 24.1.2, SVG Export Plug-In . SVG Version: 6.00 Build 0)  -->
<svg version="1.1" id="Layer_1" xmlns="http://www.w3.org/2000/svg" xmlns:xlink="http://www.w3.org/1999/xlink" x="0px" y="0px"
	 viewBox="0 0 1949.4 683.7" style="enable-background:new 0 0 1949.4 683.7;" xml:space="preserve">
<style type="text/css">
	.st0{fill:url(#SVGID_1_);}
	.st1{fill:none;stroke:#FFFFFF;stroke-width:11.82;stroke-linecap:round;stroke-linejoin:round;}
	.st2{fill:#FFFFFF;}
	.st3{enable-background:new    ;}
	.st4{fill:#A70E13;}
	.st5{fill:#3E2634;}
</style>
<g id="Layer_2_1_">
	
		<linearGradient id="SVGID_1_" gradientUnits="userSpaceOnUse" x1="69.87" y1="348.81" x2="663" y2="348.81" gradientTransform="matrix(1 0 0 -1 0 684)">
		<stop  offset="0" style="stop-color:#F69163"/>
		<stop  offset="0.32" style="stop-color:#EF4C45"/>
		<stop  offset="0.7" style="stop-color:#CC2039"/>
		<stop  offset="1" style="stop-color:#811539"/>
	</linearGradient>
	<path class="st0" d="M366.4,75.5l-51.8,100.7c-5.9,10.9-16.4,9.9-27,3.8l-37.5-20.2l28,154.7c5.9,28.2-13,28.2-22.3,16l-65.4-76.3
		l-10.6,38.7c-1.7,6.5-8.1,10.5-14.7,9.2l-82.8-18.1l21.8,82.3c4.7,18.3,8.3,25.9-4.7,30.8l-29.5,14.4L212.3,532
		c5.9,4.9,8.4,12.8,6.5,20.2l-12.5,42.7l142.1-17.1c4.4,0,31.7,0,36,0l142.1,17.1L514,552.2c-1.9-7.4,0.7-15.3,6.5-20.2L663,411.4
		L633.5,397c-13-4.8-9.3-12.5-4.7-30.8l21.7-82.3L567.8,302c-8.1,1.3-13.5-4.1-14.7-9.2l-10.6-38.8L477,330.5
		c-9.3,12.2-28.2,12.2-22.3-16l27.9-154.7L445.2,180c-10.5,6.1-21.1,7.2-26.9-3.8L366.4,75.5z"/>
	<polygon class="st1" points="223.3,504.9 365.2,273.9 507,504.9 	"/>
	<path class="st2" d="M365.2,341.4L441.3,468H289.1L365.2,341.4 M365.2,318.4l-97,161.4h194L365.2,318.4L365.2,318.4z"/>
	<g id="Stockholm_09">
		<g class="st3">
			<path class="st4" d="M725.1,496.9c0-12.7,9.7-21.7,22.8-21.7c7.3,0,13.3,2.6,17.3,7.4l-6.2,5.8c-2.8-3.2-6.4-4.9-10.6-4.9
				c-7.9,0-13.4,5.5-13.4,13.4s5.6,13.4,13.4,13.4c4.2,0,7.7-1.7,10.6-5l6.2,5.8c-4,4.9-10,7.5-17.3,7.5
				C734.8,518.6,725.1,509.5,725.1,496.9z"/>
		</g>
		<g class="st3">
			<path class="st5" d="M828.5,508.9H809l-3.7,9h-10l18.7-42h9.6l18.8,42h-10.2L828.5,508.9z M825.5,501.5l-6.7-16.1l-6.7,16.1
				H825.5z"/>
			<path class="st5" d="M915.3,475.9v42h-8l-20.9-25.5v25.5h-9.6v-42h8l20.9,25.5v-25.5H915.3z"/>
			<path class="st5" d="M983,508.9h-19.5l-3.7,9h-10l18.7-42h9.6l18.8,42h-10.2L983,508.9z M979.9,501.5l-6.7-16.1l-6.7,16.1H979.9z
				"/>
			<path class="st5" d="M1031.3,475.9h19.1c13.7,0,23.2,8.3,23.2,21s-9.4,21-23.2,21h-19.1V475.9z M1049.9,509.9
				c8.3,0,13.8-5,13.8-13s-5.5-13-13.8-13h-8.9v26H1049.9z"/>
			<path class="st5" d="M1110.8,475.9h9.7v42h-9.7V475.9z"/>
			<path class="st5" d="M1188.2,508.9h-19.5l-3.7,9h-10l18.7-42h9.6l18.8,42h-10.2L1188.2,508.9z M1185.1,501.5l-6.7-16.1l-6.7,16.1
				H1185.1z"/>
			<path class="st5" d="M1275,475.9v42h-8l-20.9-25.5v25.5h-9.6v-42h8l20.9,25.5v-25.5H1275z"/>
		</g>
		<g class="st3">
			<path class="st4" d="M1388.7,517.9l-8.1-11.7h-0.5h-8.5v11.7h-9.7v-42h18.2c11.2,0,18.2,5.8,18.2,15.2c0,6.3-3.2,10.9-8.6,13.3
				l9.4,13.5H1388.7z M1379.6,483.8h-7.9v14.6h7.9c5.9,0,8.9-2.8,8.9-7.3C1388.5,486.5,1385.5,483.8,1379.6,483.8z"/>
		</g>
		<g class="st3">
			<path class="st5" d="M1436,475.9h9.7v42h-9.7V475.9z"/>
			<path class="st5" d="M1482.4,513.8l3.3-7.3c3.5,2.6,8.8,4.4,13.9,4.4c5.8,0,8.1-1.9,8.1-4.5c0-7.9-24.4-2.5-24.4-18.1
				c0-7.1,5.8-13.1,17.7-13.1c5.3,0,10.7,1.3,14.6,3.7l-3,7.4c-3.9-2.2-7.9-3.3-11.6-3.3c-5.8,0-8,2.2-8,4.8
				c0,7.7,24.4,2.4,24.4,17.8c0,7-5.8,13-17.8,13C1492.8,518.6,1486.1,516.6,1482.4,513.8z"/>
			<path class="st5" d="M1569.3,501.4l-5.6,5.9v10.6h-9.7v-42h9.7v19.6l18.6-19.6h10.8l-17.4,18.7l18.4,23.3h-11.3L1569.3,501.4z"/>
			<path class="st5" d="M1707.6,518.6l-5-4.7c-3.8,3-8.6,4.7-14,4.7c-9.2,0-16-4.8-16-11.5c0-5.3,2.8-8.9,9.2-12.5
				c-3.1-3.2-4.3-5.9-4.3-8.9c0-6.1,5.2-10.3,13.1-10.3c7.3,0,12.1,3.7,12.1,9.7c0,4.3-2.5,7.5-8.2,10.6l7.7,7.1
				c0.9-1.9,1.6-4.1,2.1-6.5l7.5,2.3c-0.8,3.6-2,6.8-3.8,9.5l4.9,4.6L1707.6,518.6z M1697.1,508.8l-10.1-9.5
				c-3.8,2.2-5.2,4.1-5.2,6.7c0,3.1,2.9,5.2,7.5,5.2C1692.1,511.3,1694.8,510.5,1697.1,508.8z M1686,485.6c0,1.6,0.7,2.8,3.2,5.3
				c4.1-2.2,5.5-3.8,5.5-5.7c0-2-1.4-3.5-4.1-3.5C1687.7,481.7,1686,483.3,1686,485.6z"/>
		</g>
		<g class="st3">
			<path class="st4" d="M766.2,547.9v42h-9.7v-17.2h-19.1v17.2h-9.7v-42h9.7v16.6h19.1v-16.6H766.2z"/>
		</g>
		<g class="st3">
			<path class="st5" d="M833.9,580.9h-19.5l-3.7,9h-10l18.7-42h9.6l18.8,42h-10.2L833.9,580.9z M830.8,573.5l-6.7-16.1l-6.7,16.1
				H830.8z"/>
			<path class="st5" d="M916.2,582v7.9h-36.7v-6.3l23-27.8h-22.6v-7.9h35.3v6.3l-23,27.8H916.2z"/>
			<path class="st5" d="M980.1,580.9h-19.5l-3.7,9h-10l18.7-42h9.6l18.8,42h-10.2L980.1,580.9z M977,573.5l-6.7-16.1l-6.7,16.1H977z
				"/>
			<path class="st5" d="M1055.1,589.9l-8.1-11.7h-0.5h-8.5v11.7h-9.7v-42h18.2c11.2,0,18.2,5.8,18.2,15.2c0,6.3-3.2,10.9-8.6,13.3
				l9.4,13.5H1055.1z M1046,555.8h-7.9v14.6h7.9c5.9,0,8.9-2.8,8.9-7.3C1055,558.5,1052,555.8,1046,555.8z"/>
			<path class="st5" d="M1102.5,547.9h19.1c13.7,0,23.2,8.3,23.2,21s-9.4,21-23.2,21h-19.1V547.9z M1121.1,581.9
				c8.3,0,13.8-5,13.8-13s-5.5-13-13.8-13h-8.9v26H1121.1z"/>
			<path class="st5" d="M1178.7,585.8l3.3-7.3c3.5,2.6,8.8,4.4,13.9,4.4c5.8,0,8.1-1.9,8.1-4.5c0-7.9-24.4-2.5-24.4-18.1
				c0-7.1,5.8-13.1,17.7-13.1c5.3,0,10.7,1.3,14.6,3.7l-3,7.4c-3.9-2.2-7.9-3.3-11.6-3.3c-5.8,0-8,2.2-8,4.8
				c0,7.7,24.4,2.4,24.4,17.8c0,7-5.8,13-17.8,13C1189.2,590.6,1182.5,588.6,1178.7,585.8z"/>
		</g>
		<g class="st3">
			<path class="st4" d="M1335.8,547.9v42h-8l-20.9-25.5v25.5h-9.6v-42h8l20.9,25.5v-25.5H1335.8z"/>
		</g>
		<g class="st3">
			<path class="st5" d="M1408.3,582.1v7.8h-32.5v-42h31.7v7.8h-22.1v9.1h19.5v7.6h-19.5v9.7H1408.3z"/>
		</g>
		<g class="st3">
			<path class="st5" d="M1454.7,555.8h-13.4v-7.9h36.6v7.9h-13.4v34.1h-9.7V555.8z"/>
		</g>
		<g class="st3">
			<path class="st5" d="M1575.8,547.9l-13.7,42h-10.4l-9.2-28.4l-9.5,28.4h-10.4l-13.8-42h10.1l9.5,29.5l9.9-29.5h9l9.6,29.8
				l9.8-29.8H1575.8z"/>
		</g>
		<g class="st3">
			<path class="st5" d="M1608.1,568.9c0-12.5,9.7-21.7,23-21.7c13.2,0,23,9.2,23,21.7s-9.8,21.7-23,21.7
				C1617.8,590.6,1608.1,581.4,1608.1,568.9z M1644.2,568.9c0-8-5.6-13.4-13.1-13.4c-7.5,0-13.1,5.5-13.1,13.4s5.6,13.4,13.1,13.4
				C1638.6,582.3,1644.2,576.9,1644.2,568.9z"/>
			<path class="st5" d="M1718.1,589.9l-8.1-11.7h-0.5h-8.5v11.7h-9.7v-42h18.2c11.2,0,18.2,5.8,18.2,15.2c0,6.3-3.2,10.9-8.6,13.3
				l9.4,13.5H1718.1z M1709,555.8h-7.9v14.6h7.9c5.9,0,8.9-2.8,8.9-7.3C1718,558.5,1715,555.8,1709,555.8z"/>
			<path class="st5" d="M1780.8,573.4l-5.6,5.9v10.6h-9.7v-42h9.7v19.6l18.6-19.6h10.8l-17.4,18.7l18.4,23.3h-11.3L1780.8,573.4z"/>
		</g>
		<g class="st3">
			<path class="st5" d="M717.3,350.7c0-43,33-73.8,77.5-73.8c24.7,0,45.3,9,58.8,25.3l-21.2,19.6c-9.6-11-21.6-16.7-35.9-16.7
				c-26.7,0-45.7,18.8-45.7,45.7s19,45.7,45.7,45.7c14.3,0,26.3-5.7,35.9-16.9l21.2,19.6c-13.5,16.5-34.1,25.5-59,25.5
				C750.4,424.5,717.3,393.7,717.3,350.7z"/>
			<path class="st5" d="M966.8,422.1l-27.5-39.8h-1.6h-28.8v39.8h-33V279.3h61.8c38.1,0,62,19.8,62,51.8c0,21.4-10.8,37.1-29.4,45.1
				l32,45.9H966.8z M935.8,306.2h-26.9V356h26.9c20.2,0,30.4-9.4,30.4-24.9C966.2,315.4,956,306.2,935.8,306.2z"/>
			<path class="st5" d="M1156.7,279.3v142.8h-33v-58.5h-64.9v58.5h-33V279.3h33v56.3h64.9v-56.3H1156.7z"/>
			<path class="st5" d="M1321.6,279.3v142.8h-27.1l-71.2-86.7v86.7h-32.6V279.3h27.3l71,86.7v-86.7H1321.6z"/>
			<path class="st5" d="M1460.1,376.2h-83c3.1,13.7,14.7,22,31.4,22c11.6,0,20-3.5,27.5-10.6L1453,406
				c-10.2,11.6-25.5,17.7-45.3,17.7c-37.9,0-62.6-23.9-62.6-56.5c0-32.8,25.1-56.5,58.5-56.5c32.2,0,57.1,21.6,57.1,56.9
				C1460.7,370.1,1460.3,373.5,1460.1,376.2z M1376.7,357.6h54.1c-2.2-13.9-12.6-22.8-26.9-22.8
				C1389.3,334.8,1378.9,343.5,1376.7,357.6z"/>
			<path class="st5" d="M1552.7,416.8c-6.5,4.7-16.1,6.9-25.9,6.9c-25.9,0-41-13.3-41-39.4v-45.1h-16.9v-24.5h16.9V288h31.8v26.7
				h27.3v24.5h-27.3v44.7c0,9.4,5.1,14.5,13.7,14.5c4.7,0,9.4-1.4,12.9-4.1L1552.7,416.8z"/>
		</g>
	</g>
</g>
</svg>
